STARTFONT 2.1
FONT -FontForge-Pixilator-Book-R-Normal--12-120-75-75-P-46-ISO10646-1
SIZE 12 75 75
FONTBOUNDINGBOX 7 9 0 -2
COMMENT "Generated by fontforge, http://fontforge.sourceforge.net"
COMMENT "Copyright cloudboy 2010"
STARTPROPERTIES 40
FOUNDRY "FontForge"
FAMILY_NAME "Pixilator"
WEIGHT_NAME "Book"
SLANT "R"
SETWIDTH_NAME "Normal"
ADD_STYLE_NAME ""
PIXEL_SIZE 12
POINT_SIZE 120
RESOLUTION_X 75
RESOLUTION_Y 75
SPACING "P"
AVERAGE_WIDTH 46
CHARSET_REGISTRY "ISO10646"
CHARSET_ENCODING "1"
FONTNAME_REGISTRY ""
CHARSET_COLLECTIONS "ISO10646-1"
FONT_NAME "Pixilator"
FACE_NAME "Pixilator Regular"
COPYRIGHT "Copyright cloudboy 2010"
FONT_VERSION "1.0"
FONT_ASCENT 10
FONT_DESCENT 2
UNDERLINE_POSITION 1
UNDERLINE_THICKNESS 1
X_HEIGHT 3
CAP_HEIGHT 5
DEFAULT_CHAR 1
RAW_ASCENT 799
RAW_DESCENT 200
NORM_SPACE 2
RELATIVE_WEIGHT 40
RELATIVE_SETWIDTH 50
SUPERSCRIPT_X 0
SUPERSCRIPT_Y 6
SUPERSCRIPT_SIZE 6
SUBSCRIPT_X 0
SUBSCRIPT_Y 0
SUBSCRIPT_SIZE 6
AVG_LOWERCASE_WIDTH 47
AVG_UPPERCASE_WIDTH 53
ENDPROPERTIES
CHARS 102
STARTCHAR glyph1.dup1
ENCODING 0
SWIDTH 0 0
DWIDTH 0 0
BBX 1 1 0 0
BITMAP
00
ENDCHAR
STARTCHAR uni000D
ENCODING 13
SWIDTH 0 0
DWIDTH 0 0
BBX 1 1 0 0
BITMAP
00
ENDCHAR
STARTCHAR space
ENCODING 32
SWIDTH 125 0
DWIDTH 2 0
BBX 1 1 0 0
BITMAP
00
ENDCHAR
STARTCHAR exclam
ENCODING 33
SWIDTH 250 0
DWIDTH 3 0
BBX 1 6 1 0
BITMAP
80
80
80
80
80
80
ENDCHAR
STARTCHAR quotedbl
ENCODING 34
SWIDTH 312 0
DWIDTH 4 0
BBX 2 2 1 4
BITMAP
C0
C0
ENDCHAR
STARTCHAR numbersign
ENCODING 35
SWIDTH 437 0
DWIDTH 5 0
BBX 5 4 0 1
BITMAP
58
50
50
D0
ENDCHAR
STARTCHAR dollar
ENCODING 36
SWIDTH 375 0
DWIDTH 5 0
BBX 4 8 0 -1
BITMAP
40
60
90
60
10
90
60
40
ENDCHAR
STARTCHAR percent
ENCODING 37
SWIDTH 500 0
DWIDTH 6 0
BBX 5 6 0 0
BITMAP
48
D8
20
20
58
88
ENDCHAR
STARTCHAR ampersand
ENCODING 38
SWIDTH 437 0
DWIDTH 5 0
BBX 5 6 0 0
BITMAP
60
80
50
A0
90
68
ENDCHAR
STARTCHAR quotesingle
ENCODING 39
SWIDTH 187 0
DWIDTH 2 0
BBX 1 2 1 4
BITMAP
80
80
ENDCHAR
STARTCHAR parenleft
ENCODING 40
SWIDTH 250 0
DWIDTH 3 0
BBX 1 8 1 -1
BITMAP
80
80
80
80
80
80
80
80
ENDCHAR
STARTCHAR parenright
ENCODING 41
SWIDTH 250 0
DWIDTH 3 0
BBX 1 8 1 -1
BITMAP
80
80
80
80
80
80
80
80
ENDCHAR
STARTCHAR asterisk
ENCODING 42
SWIDTH 437 0
DWIDTH 5 0
BBX 4 4 1 3
BITMAP
D0
40
C0
D0
ENDCHAR
STARTCHAR plus
ENCODING 43
SWIDTH 375 0
DWIDTH 5 0
BBX 4 4 0 1
BITMAP
40
F0
40
40
ENDCHAR
STARTCHAR comma
ENCODING 44
SWIDTH 187 0
DWIDTH 2 0
BBX 1 2 1 -1
BITMAP
80
80
ENDCHAR
STARTCHAR hyphen
ENCODING 45
SWIDTH 312 0
DWIDTH 4 0
BBX 3 1 0 3
BITMAP
E0
ENDCHAR
STARTCHAR period
ENCODING 46
SWIDTH 187 0
DWIDTH 2 0
BBX 1 1 1 0
BITMAP
80
ENDCHAR
STARTCHAR slash
ENCODING 47
SWIDTH 500 0
DWIDTH 6 0
BBX 5 6 0 0
BITMAP
08
18
20
20
40
80
ENDCHAR
STARTCHAR zero
ENCODING 48
SWIDTH 375 0
DWIDTH 5 0
BBX 4 6 0 0
BITMAP
60
90
90
90
90
60
ENDCHAR
STARTCHAR one
ENCODING 49
SWIDTH 250 0
DWIDTH 3 0
BBX 1 6 1 0
BITMAP
80
80
80
80
80
80
ENDCHAR
STARTCHAR two
ENCODING 50
SWIDTH 375 0
DWIDTH 5 0
BBX 4 6 0 0
BITMAP
60
90
20
40
C0
F0
ENDCHAR
STARTCHAR three
ENCODING 51
SWIDTH 375 0
DWIDTH 5 0
BBX 4 6 0 0
BITMAP
E0
30
60
10
90
60
ENDCHAR
STARTCHAR four
ENCODING 52
SWIDTH 375 0
DWIDTH 5 0
BBX 4 6 0 0
BITMAP
20
60
60
F0
20
20
ENDCHAR
STARTCHAR five
ENCODING 53
SWIDTH 375 0
DWIDTH 5 0
BBX 4 6 0 0
BITMAP
F0
80
E0
10
90
60
ENDCHAR
STARTCHAR six
ENCODING 54
SWIDTH 375 0
DWIDTH 5 0
BBX 4 6 0 0
BITMAP
60
C0
E0
90
90
60
ENDCHAR
STARTCHAR seven
ENCODING 55
SWIDTH 375 0
DWIDTH 5 0
BBX 4 6 0 0
BITMAP
F0
30
20
40
40
40
ENDCHAR
STARTCHAR eight
ENCODING 56
SWIDTH 375 0
DWIDTH 5 0
BBX 4 6 0 0
BITMAP
60
90
60
90
90
60
ENDCHAR
STARTCHAR nine
ENCODING 57
SWIDTH 375 0
DWIDTH 5 0
BBX 4 6 0 0
BITMAP
60
90
90
70
30
40
ENDCHAR
STARTCHAR colon
ENCODING 58
SWIDTH 312 0
DWIDTH 4 0
BBX 1 4 2 1
BITMAP
80
00
00
80
ENDCHAR
STARTCHAR semicolon
ENCODING 59
SWIDTH 312 0
DWIDTH 4 0
BBX 1 6 2 -1
BITMAP
80
00
00
80
80
80
ENDCHAR
STARTCHAR less
ENCODING 60
SWIDTH 562 0
DWIDTH 7 0
BBX 5 4 1 1
BITMAP
18
70
80
78
ENDCHAR
STARTCHAR equal
ENCODING 61
SWIDTH 437 0
DWIDTH 5 0
BBX 4 3 1 2
BITMAP
F0
00
F0
ENDCHAR
STARTCHAR greater
ENCODING 62
SWIDTH 562 0
DWIDTH 7 0
BBX 5 4 1 1
BITMAP
80
70
18
F0
ENDCHAR
STARTCHAR question
ENCODING 63
SWIDTH 437 0
DWIDTH 5 0
BBX 5 6 0 0
BITMAP
70
98
20
40
40
40
ENDCHAR
STARTCHAR at
ENCODING 64
SWIDTH 562 0
DWIDTH 7 0
BBX 6 7 0 -2
BITMAP
F8
F4
8C
FC
F8
40
78
ENDCHAR
STARTCHAR A
ENCODING 65
SWIDTH 500 0
DWIDTH 6 0
BBX 5 6 0 0
BITMAP
20
70
48
48
F8
88
ENDCHAR
STARTCHAR B
ENCODING 66
SWIDTH 375 0
DWIDTH 5 0
BBX 4 6 0 0
BITMAP
E0
90
E0
90
90
E0
ENDCHAR
STARTCHAR C
ENCODING 67
SWIDTH 437 0
DWIDTH 5 0
BBX 5 6 0 0
BITMAP
70
88
80
80
88
70
ENDCHAR
STARTCHAR D
ENCODING 68
SWIDTH 375 0
DWIDTH 5 0
BBX 4 6 0 0
BITMAP
E0
90
90
90
90
E0
ENDCHAR
STARTCHAR E
ENCODING 69
SWIDTH 375 0
DWIDTH 5 0
BBX 4 6 0 0
BITMAP
F0
80
E0
80
80
F0
ENDCHAR
STARTCHAR F
ENCODING 70
SWIDTH 375 0
DWIDTH 5 0
BBX 4 6 0 0
BITMAP
F0
80
E0
80
80
80
ENDCHAR
STARTCHAR G
ENCODING 71
SWIDTH 437 0
DWIDTH 5 0
BBX 5 6 0 0
BITMAP
70
C8
80
B8
C8
78
ENDCHAR
STARTCHAR H
ENCODING 72
SWIDTH 437 0
DWIDTH 5 0
BBX 5 6 0 0
BITMAP
88
88
F8
88
88
88
ENDCHAR
STARTCHAR I
ENCODING 73
SWIDTH 312 0
DWIDTH 4 0
BBX 2 6 1 0
BITMAP
C0
80
80
80
80
C0
ENDCHAR
STARTCHAR J
ENCODING 74
SWIDTH 375 0
DWIDTH 5 0
BBX 4 6 0 0
BITMAP
10
10
10
10
90
60
ENDCHAR
STARTCHAR K
ENCODING 75
SWIDTH 437 0
DWIDTH 5 0
BBX 5 6 0 0
BITMAP
88
B0
C0
C0
B0
88
ENDCHAR
STARTCHAR L
ENCODING 76
SWIDTH 375 0
DWIDTH 5 0
BBX 4 6 0 0
BITMAP
80
80
80
80
80
F0
ENDCHAR
STARTCHAR M
ENCODING 77
SWIDTH 500 0
DWIDTH 6 0
BBX 5 6 0 0
BITMAP
88
D8
D8
A8
A8
88
ENDCHAR
STARTCHAR N
ENCODING 78
SWIDTH 437 0
DWIDTH 5 0
BBX 5 6 0 0
BITMAP
88
C8
C8
A8
A8
88
ENDCHAR
STARTCHAR O
ENCODING 79
SWIDTH 437 0
DWIDTH 5 0
BBX 5 6 0 0
BITMAP
70
88
88
88
88
70
ENDCHAR
STARTCHAR P
ENCODING 80
SWIDTH 437 0
DWIDTH 5 0
BBX 5 6 0 0
BITMAP
F0
88
88
F0
80
80
ENDCHAR
STARTCHAR Q
ENCODING 81
SWIDTH 437 0
DWIDTH 5 0
BBX 5 6 0 0
BITMAP
70
88
88
88
E8
70
ENDCHAR
STARTCHAR R
ENCODING 82
SWIDTH 437 0
DWIDTH 5 0
BBX 5 6 0 0
BITMAP
F0
88
88
F0
88
88
ENDCHAR
STARTCHAR S
ENCODING 83
SWIDTH 437 0
DWIDTH 5 0
BBX 5 6 0 0
BITMAP
70
88
70
08
88
70
ENDCHAR
STARTCHAR T
ENCODING 84
SWIDTH 500 0
DWIDTH 6 0
BBX 5 6 0 0
BITMAP
F8
20
20
20
20
20
ENDCHAR
STARTCHAR U
ENCODING 85
SWIDTH 437 0
DWIDTH 5 0
BBX 5 6 0 0
BITMAP
88
88
88
88
88
70
ENDCHAR
STARTCHAR V
ENCODING 86
SWIDTH 500 0
DWIDTH 6 0
BBX 5 6 0 0
BITMAP
88
C8
48
48
58
20
ENDCHAR
STARTCHAR W
ENCODING 87
SWIDTH 625 0
DWIDTH 8 0
BBX 7 6 0 0
BITMAP
82
92
AA
6C
4C
44
ENDCHAR
STARTCHAR X
ENCODING 88
SWIDTH 500 0
DWIDTH 6 0
BBX 5 6 0 0
BITMAP
88
58
20
20
58
88
ENDCHAR
STARTCHAR Y
ENCODING 89
SWIDTH 500 0
DWIDTH 6 0
BBX 5 6 0 0
BITMAP
88
58
20
20
20
20
ENDCHAR
STARTCHAR Z
ENCODING 90
SWIDTH 500 0
DWIDTH 6 0
BBX 5 6 0 0
BITMAP
F8
18
20
20
40
F8
ENDCHAR
STARTCHAR bracketleft
ENCODING 91
SWIDTH 312 0
DWIDTH 4 0
BBX 2 8 1 -1
BITMAP
C0
80
80
80
80
80
80
C0
ENDCHAR
STARTCHAR backslash
ENCODING 92
SWIDTH 500 0
DWIDTH 6 0
BBX 5 6 0 0
BITMAP
80
40
20
20
18
08
ENDCHAR
STARTCHAR bracketright
ENCODING 93
SWIDTH 312 0
DWIDTH 4 0
BBX 2 8 1 -1
BITMAP
C0
40
40
40
40
40
40
C0
ENDCHAR
STARTCHAR asciicircum
ENCODING 94
SWIDTH 312 0
DWIDTH 4 0
BBX 2 2 1 4
BITMAP
80
C0
ENDCHAR
STARTCHAR underscore
ENCODING 95
SWIDTH 500 0
DWIDTH 6 0
BBX 5 1 0 0
BITMAP
F8
ENDCHAR
STARTCHAR grave
ENCODING 96
SWIDTH 250 0
DWIDTH 3 0
BBX 1 2 1 4
BITMAP
80
80
ENDCHAR
STARTCHAR a
ENCODING 97
SWIDTH 500 0
DWIDTH 6 0
BBX 5 4 0 0
BITMAP
70
08
F8
78
ENDCHAR
STARTCHAR b
ENCODING 98
SWIDTH 437 0
DWIDTH 5 0
BBX 5 5 0 0
BITMAP
80
F0
88
88
F0
ENDCHAR
STARTCHAR c
ENCODING 99
SWIDTH 437 0
DWIDTH 5 0
BBX 5 4 0 0
BITMAP
70
88
88
70
ENDCHAR
STARTCHAR d
ENCODING 100
SWIDTH 437 0
DWIDTH 5 0
BBX 5 5 0 0
BITMAP
08
78
88
88
78
ENDCHAR
STARTCHAR e
ENCODING 101
SWIDTH 437 0
DWIDTH 5 0
BBX 5 4 0 0
BITMAP
70
88
88
70
ENDCHAR
STARTCHAR f
ENCODING 102
SWIDTH 250 0
DWIDTH 3 0
BBX 2 6 0 0
BITMAP
40
40
C0
40
40
40
ENDCHAR
STARTCHAR g
ENCODING 103
SWIDTH 437 0
DWIDTH 5 0
BBX 5 6 0 -2
BITMAP
70
88
88
78
88
70
ENDCHAR
STARTCHAR h
ENCODING 104
SWIDTH 375 0
DWIDTH 5 0
BBX 4 5 0 0
BITMAP
80
E0
90
90
90
ENDCHAR
STARTCHAR i
ENCODING 105
SWIDTH 250 0
DWIDTH 3 0
BBX 1 5 1 0
BITMAP
80
80
80
80
80
ENDCHAR
STARTCHAR j
ENCODING 106
SWIDTH 250 0
DWIDTH 3 0
BBX 1 7 1 -2
BITMAP
80
80
80
80
80
80
80
ENDCHAR
STARTCHAR k
ENCODING 107
SWIDTH 375 0
DWIDTH 5 0
BBX 4 5 0 0
BITMAP
80
A0
C0
A0
90
ENDCHAR
STARTCHAR l
ENCODING 108
SWIDTH 312 0
DWIDTH 4 0
BBX 2 5 1 0
BITMAP
80
80
80
80
40
ENDCHAR
STARTCHAR m
ENCODING 109
SWIDTH 500 0
DWIDTH 6 0
BBX 5 4 0 0
BITMAP
D8
A8
A8
A8
ENDCHAR
STARTCHAR n
ENCODING 110
SWIDTH 437 0
DWIDTH 5 0
BBX 5 4 0 0
BITMAP
F0
88
88
88
ENDCHAR
STARTCHAR o
ENCODING 111
SWIDTH 437 0
DWIDTH 5 0
BBX 5 4 0 0
BITMAP
70
88
88
70
ENDCHAR
STARTCHAR p
ENCODING 112
SWIDTH 437 0
DWIDTH 5 0
BBX 5 6 0 -2
BITMAP
70
88
88
F0
80
80
ENDCHAR
STARTCHAR q
ENCODING 113
SWIDTH 437 0
DWIDTH 5 0
BBX 5 6 0 -2
BITMAP
70
88
88
78
08
08
ENDCHAR
STARTCHAR r
ENCODING 114
SWIDTH 312 0
DWIDTH 4 0
BBX 3 4 0 0
BITMAP
E0
C0
80
80
ENDCHAR
STARTCHAR s
ENCODING 115
SWIDTH 375 0
DWIDTH 5 0
BBX 4 4 0 0
BITMAP
60
80
F0
60
ENDCHAR
STARTCHAR t
ENCODING 116
SWIDTH 312 0
DWIDTH 4 0
BBX 3 5 0 0
BITMAP
40
E0
40
40
60
ENDCHAR
STARTCHAR u
ENCODING 117
SWIDTH 375 0
DWIDTH 5 0
BBX 4 4 0 0
BITMAP
90
90
90
70
ENDCHAR
STARTCHAR v
ENCODING 118
SWIDTH 375 0
DWIDTH 5 0
BBX 4 4 0 0
BITMAP
90
90
60
40
ENDCHAR
STARTCHAR w
ENCODING 119
SWIDTH 500 0
DWIDTH 6 0
BBX 5 4 0 0
BITMAP
88
A8
68
50
ENDCHAR
STARTCHAR x
ENCODING 120
SWIDTH 375 0
DWIDTH 5 0
BBX 4 4 0 0
BITMAP
90
60
60
90
ENDCHAR
STARTCHAR y
ENCODING 121
SWIDTH 437 0
DWIDTH 5 0
BBX 5 6 0 -2
BITMAP
88
48
68
10
50
60
ENDCHAR
STARTCHAR z
ENCODING 122
SWIDTH 375 0
DWIDTH 5 0
BBX 4 4 0 0
BITMAP
F0
20
40
F0
ENDCHAR
STARTCHAR braceleft
ENCODING 123
SWIDTH 250 0
DWIDTH 3 0
BBX 2 8 0 -1
BITMAP
40
40
40
C0
40
40
40
40
ENDCHAR
STARTCHAR bar
ENCODING 124
SWIDTH 250 0
DWIDTH 3 0
BBX 1 8 1 -1
BITMAP
80
80
80
80
80
80
80
80
ENDCHAR
STARTCHAR braceright
ENCODING 125
SWIDTH 312 0
DWIDTH 4 0
BBX 2 8 1 -1
BITMAP
80
80
80
C0
80
80
80
80
ENDCHAR
STARTCHAR asciitilde
ENCODING 126
SWIDTH 375 0
DWIDTH 5 0
BBX 4 3 0 2
BITMAP
40
D0
20
ENDCHAR
STARTCHAR quoteleft
ENCODING 8216
SWIDTH 187 0
DWIDTH 2 0
BBX 1 2 1 4
BITMAP
80
80
ENDCHAR
STARTCHAR quoteright
ENCODING 8217
SWIDTH 187 0
DWIDTH 2 0
BBX 1 2 1 4
BITMAP
80
80
ENDCHAR
STARTCHAR quotedblleft
ENCODING 8220
SWIDTH 312 0
DWIDTH 4 0
BBX 2 2 1 4
BITMAP
C0
C0
ENDCHAR
STARTCHAR quotedblright
ENCODING 8221
SWIDTH 312 0
DWIDTH 4 0
BBX 2 2 1 4
BITMAP
C0
C0
ENDCHAR
STARTCHAR .notdef
ENCODING -1
SWIDTH 562 0
DWIDTH 7 0
BBX 7 7 0 0
BITMAP
FE
EE
DE
DE
CE
DE
FE
ENDCHAR
ENDFONT
